<svg width="12" height="13" viewBox="0 0 12 13" fill="none" xmlns="http://www.w3.org/2000/svg">
<path fill-rule="evenodd" clip-rule="evenodd" d="M0 1.63334C0 0.896956 0.596953 0.300003 1.33333 0.300003H10.6667C11.4031 0.300003 12 0.896956 12 1.63334V10.9667C12 11.7031 11.4031 12.3 10.6667 12.3H1.33333C0.596953 12.3 0 11.7031 0 10.9667V1.63334ZM1.33333 2.3C1.33333 1.93182 1.63181 1.63334 2 1.63334H4.66667C5.03487 1.63334 5.33333 1.93182 5.33333 2.3V8.96667C5.33333 9.33487 5.03487 9.63334 4.66667 9.63334H2C1.63181 9.63334 1.33333 9.33487 1.33333 8.96667V2.3ZM7.33333 1.63334C6.96513 1.63334 6.66667 1.93182 6.66667 2.3V6.3C6.66667 6.6682 6.96513 6.96667 7.33333 6.96667H10C10.3682 6.96667 10.6667 6.6682 10.6667 6.3V2.3C10.6667 1.93182 10.3682 1.63334 10 1.63334H7.33333Z" fill="#8C9BAB"/>
</svg>
